{"title":"That Sugar Film.2014.BRRiP.XViD.AC3.5.1.ReLeNTLesS","uid":12166061,"size":1311079793,"categoryP":"video","categoryS":"movies","magnet":"?xt=urn:btih:c25a59d1211b6b554376b06205fe65154730d077&amp;dn=That+Sugar+Film.2014.BRRiP.XViD.AC3.5.1.ReLeNTLesS&amp;tr=udp%3A%2F%2Ftracker.openbittorrent.com%3A80&amp;tr=udp%3A%2F%2Fopen.demonii.com%3A1337&amp;tr=udp%3A%2F%2Ftracker.coppersurfer.tk%3A6969&amp;tr=udp%3A%2F%2Fexodus.desync.com%3A6969","seeders":0,"leechers":0,"uploader":"TvTeam","files":4,"time":1438038493,"description":"------------------------------------------------------------------------\n\n &lt;a href=&quot; https://www.torrenting.com&quot; rel=&quot;nofollow&quot; target=&quot;_NEW&quot;&gt; https://www.torrenting.com&lt;/a&gt;\n\nSign up is OPEN - for time being. Come and have fun\n\n.......................................................................................................................P0STER\n[img]http://i.imgur.com/5wfh7Hr.png[/img]\n\niMDB: http://www.imdb.com/title/tt3892434/\n\nGeneral\nComplete name               : That Sugar Film.2014.BRRiP.XViD.AC3.5.1.ReLeNTLesS.avi\nFormat                      : AVI\nFormat/Info                 : Audio Video Interleave\nFile size                   : 1.21 GiB\nDuration                    : 1h 41mn\nOverall bit rate            : 1 704 Kbps\n\nVideo\nID                          : 0\nFormat                      : MPEG-4 Visual\nFormat profile              : Advanced Simple@L5\nFormat settings, BVOP       : 1\nFormat settings, QPel       : No\nFormat settings, GMC        : No warppoints\nFormat settings, Matrix     : Default (H.263)\nMuxing mode                 : Packed bitstream\nCodec ID                    : XVID\nCodec ID/Hint               : XviD\nDuration                    : 1h 41mn\nBit rate                    : 1 504 Kbps\nWidth                       : 720 pixels\nHeight                      : 304 pixels\nDisplay aspect ratio        : 2.35:1\nFrame rate                  : 24.000 fps\nColor space                 : YUV\nChroma subsampling          : 4:2:0\nBit depth                   : 8 bits\nScan type                   : Progressive\nCompression mode            : Lossy\nBits/(Pixel*Frame)          : 0.286\nStream size                 : 1.07 GiB (88%)\nWriting library             : XviD 1.2.1 (UTC 2008-12-04)\n\nAudio\nID                          : 1\nFormat                      : AC-3\nFormat/Info                 : Audio Coding 3\nMode extension              : CM (complete main)\nFormat settings, Endianness : Big\nCodec ID                    : 2000\nDuration                    : 1h 41mn\nBit rate mode               : Constant\nBit rate                    : 192 Kbps\nChannel(s)                  : 6 channels\nChannel positions           : Front: L C R, Side: L R, LFE\nSampling rate               : 48.0 KHz\nCompression mode            : Lossy\nStream size                 : 140 MiB (11%)\nAlignment                   : Aligned on interleaves\nInterleave, duration        : 64 ms (1.54 video frames)\nInterleave, preload duratio : 192 ms\nTitle                       : That Sugar Film.2014.ReLeNTLesS.audio.5.1English\nSample Included             : Yes \nSource                      : 1080p BlueRay \n\nPL0T\nThis will change the way you think about healthy food.\n\nCAST\nDirector: Damon Gameau\nWriter: Damon Gameau\nStars: Damon Gameau, Richard Davies, Skylar Delphinus, Steven Fry\n\nSCREENS\n[img]http://i.imgur.com/XkncdqH.png[/img]\n[img]http://i.imgur.com/AyT4ANy.png[/img]\n[img]http://i.imgur.com/cugDPxQ.png[/img]\n[img]http://i.imgur.com/Vry0gJD.png[/img]\n[img]http://i.imgur.com/SbeUeta.png[/img]\n[img]http://i.imgur.com/aPyNrlj.png[/img]\n\nTRAiLER\n\nGREETZ\n\n\nHIVE-CM8, Blackjesus, M0RPH, M00SE, MiLLENiUM,\n\nMANiX, TiTAN, Anonymous, TuX, \n\nACAB, KingStoner, FooKas, 4PlayHD, \n\nGodFather, Cld.... \n\nKeep up the good work guyz","torrent":{"xt":"urn:btih:c25a59d1211b6b554376b06205fe65154730d077","amp;dn":"That+Sugar+Film.2014.BRRiP.XViD.AC3.5.1.ReLeNTLesS","amp;tr":["udp%3A%2F%2Ftracker.openbittorrent.com%3A80","udp%3A%2F%2Fopen.demonii.com%3A1337","udp%3A%2F%2Ftracker.coppersurfer.tk%3A6969","udp%3A%2F%2Fexodus.desync.com%3A6969"],"infoHash":"c25a59d1211b6b554376b06205fe65154730d077","infoHashBuffer":{"type":"Buffer","data":[194,90,89,209,33,27,107,85,67,118,176,98,5,254,101,21,71,48,208,119]},"announce":[],"urlList":[]}}